<?xml version="1.0" encoding="utf-8"?>
<!-- Generator: Adobe Illustrator 26.0.3, SVG Export Plug-In . SVG Version: 6.00 Build 0)  -->
<svg version="1.0" id="Layer_1" xmlns="http://www.w3.org/2000/svg" xmlns:xlink="http://www.w3.org/1999/xlink" x="0px" y="0px"
	 viewBox="0 0 1170 856.8" style="enable-background:new 0 0 1170 856.8;" xml:space="preserve">
<style type="text/css">
	.st0{fill:#384EA2;}
	.st1{fill:#00B25A;}
	.st2{fill:#ED1C24;}
	.st3{fill:#FAA61A;}
</style>
<g id="layer1">
	<g id="g949">
		<path id="path183" class="st0" d="M446.4,645.6l-76-164.4l4.9,195.9L446.4,645.6z M752.6,540.9l4.6-190.3l75.4-22.9v317.5
			l-75.4,31.9l0,0L646.4,540.7v183.1l-80,33.6l-3.2-330.9l83.2-26.7L752.6,540.9z M624.4,392.6l16.3-12V254.4l-81.3,22.3L504.7,393
			l62-18L624.4,392.6z"/>
		<path id="path185" class="st1" d="M492.1,254.1L451,327.7l35.4,72.2l17.6-5.5l68.4-121.9L492.1,254.1z M486.4,399.9l-3.3,152.6
			L378.5,355.3l-78.6-27.6v317.5l75.4,31.9V508.2l111.1,215.6l80,33.6V425L486.4,399.9z M681.8,327.7l-57.1,64.6l21.7,7.6
			l110.8,158.6V347.7L681.8,327.7z"/>
		<path id="path193" class="st2" d="M646.4,611.2l22.7,31.9l88.2,34L646.4,532.3V611.2z M369.7,345.6l81.3-17.9l35.4,72.2v166
			L369.7,345.6z"/>
		<path id="path201" class="st3" d="M566.4,225.4l-74.3,28.7l74.3,29l74.3-28.7l0,0L566.4,225.4z M375.6,298.7l75.4,29l-75.4,29
			l-75.8-29L375.6,298.7z M757.2,298.7l75.4,29l-75.4,29l-75.4-29L757.2,298.7z M486.4,399.9l80.4-30.4l79.6,30.4l-80,30.5
			L486.4,399.9z"/>
		<path id="path203" class="st0" d="M791.6,120.6c-25.5,0-37.9,16.6-37.9,40.7s12.7,40.7,37.9,40.7c25.5,0,37.9-16.6,37.9-40.7
			S816.7,120.6,791.6,120.6z M230.1,122.7v77.2h23.4v-44.6h0.4l15.6,44.6h34.7v-77.2h-23.4V167h-0.3l-15.6-44.3H230.1z M318.3,122.7
			v77.2h29v-77.2H318.3z M361.1,122.7v77.2h23.4v-44.6h0.4l15.6,44.6h34.7v-77.2h-23.4V167h-0.4l-15.6-44.3H361.1z M443.6,122.7
			v20.9H462v56.3h29v-56.3h18.4v-20.9H443.6z M518.3,122.7v77.2h58.1v-20.2h-29.7v-8.5h26.5v-19.8h-26.5v-8.1h29v-20.5H518.3z
			 M586.6,122.7v77.2H610v-44.6h0.3l15.6,44.6h34.7v-77.2h-23.4V167h-0.3l-15.6-44.3H586.6z M673.3,122.7v77.2h36.1
			c22.3,0,36.8-14.5,36.8-37.9c0-22.7-9.2-39.3-38.6-39.3L673.3,122.7z M791.6,139.7c4.6,0,7.8,2.8,7.8,21.2
			c0,19.1-3.2,21.2-7.8,21.2s-7.8-2.5-7.8-21.2S787,139.7,791.6,139.7L791.6,139.7z M701.6,140.1h2.8c4.6,0,7.8,1.4,9.6,4.6
			c1.8,3.2,2.1,9.2,2.1,16.6c0,7.4-0.3,13.4-2.1,16.6c-1.8,3.2-5,4.6-9.6,4.6h-2.8V140.1L701.6,140.1z"/>
		<path id="path207" class="st0" d="M842.9,183.6c-5.1,0-9.2,4.1-9.2,9.2c0,5.1,4.1,9.2,9.2,9.2c5.1,0,9.2-4.1,9.2-9.2c0,0,0,0,0,0
			C852,187.8,847.9,183.7,842.9,183.6z M842.9,185.4c4.1,0,7.4,3.3,7.4,7.4s-3.3,7.4-7.4,7.4s-7.4-3.3-7.4-7.4
			C835.5,188.7,838.8,185.4,842.9,185.4L842.9,185.4z M839.3,187.9v9.9h2.1v-4.2h2.1c0.7,0,1.1,0.7,1.1,1.4c-0.1,1,0.1,1.9,0.3,2.8
			h2.5c-0.4-0.8-0.6-1.6-0.7-2.5c0-1.4,0-2.1-1.8-2.5c1.4-0.4,2.1-1.1,2.1-2.5c0-1.8-1.8-2.5-3.5-2.5L839.3,187.9z M841.5,189.3h1.8
			c0.7-0.1,1.3,0.4,1.4,1.1c0,0.1,0,0.2,0,0.3c0,1.1-0.4,1.4-1.4,1.4h-1.8V189.3z"/>
		<path id="path223" class="st2" d="M875.5,99.4c-9.9,0.4-18,3.2-24.4,9.2c-6.7,6-10.6,15.9-10.6,27.2c0,14.2,7.4,27.3,24.8,27.3
			c13.1,0,22.7-9.9,22.7-22.7c0-13.1-8.8-20.2-18.4-20.2c-5,0-8.5,1.1-11.7,3.9h-0.3c1.8-6,6.4-11,18.8-11.7h5V99.4H875.5z
			 M913,100.4l-20.5,36.8v11h25.8v14.2h15.2v-13.8h6.4v-12.7h-6.4v-35.4H913z M918.3,112.4h0.4c0,4.2-0.4,8.5-0.4,12.4v10.7h-10.6
			v-0.3l5-10.3C914.8,120.6,916.5,116.7,918.3,112.4L918.3,112.4z M864.1,132.3c5.3,0,7.4,5,7.4,9.2c0,5.3-2.5,9.2-6.4,9.2
			c-5.3,0-7.8-5.3-8.1-10.3c-0.1-1.2,0-2.4,0.3-3.5C858.5,134.2,861.2,132.3,864.1,132.3z"/>
	</g>
</g>
</svg>
